<svg width="281" height="166" viewBox="0 0 281 166" fill="none" xmlns="http://www.w3.org/2000/svg">
<path fill-rule="evenodd" clip-rule="evenodd" d="M277.31 10.0829C279.466 13.6397 280.495 19.5175 280.495 27.3072C280.495 43.1962 276.382 58.9738 271.748 71.3726C269.425 77.5881 266.952 83.0044 264.757 87.2209C262.606 91.3524 260.61 94.5509 259.199 96.1708C259.107 96.2767 259.011 96.3875 258.91 96.5028C259.42 110.614 258.318 123.704 248.29 132.724C240.311 139.902 231.051 141.186 219.988 138.979C209.167 136.82 196.086 131.221 179.932 124.127C165.149 117.635 152.694 114.889 142.207 114.647C142.147 118.104 142.118 121.581 142.107 125.061C144.519 124.12 147.31 123.61 150.482 123.747C156.31 123.999 160.419 126.8 162.378 131.037C164.233 135.046 163.922 139.813 162.263 143.86C160.726 147.609 158.103 151.636 153.937 156.544L153.899 156.589L153.859 156.633C150.635 160.171 148.146 162.679 144.25 164.703C143.604 165.039 142.751 165.4 141.668 165.514C140.593 165.628 139.53 165.475 138.45 165.14C136.425 164.511 133.903 163.092 130.409 160.753L130.4 160.747L130.392 160.742C122.806 155.597 117.635 149.784 115.581 143.928C114.538 140.955 114.286 137.92 115.022 135.016C115.76 132.101 117.435 129.548 119.869 127.468C123.012 124.781 126.87 124.16 130.439 124.606C132.026 124.804 133.6 125.215 135.114 125.778C134.668 122.141 133.956 118.548 133.1 115.095C123.282 116.335 115.53 119.935 109.422 124.437C95.4401 134.744 89.2904 150.34 87.2223 156.404C86.6221 158.163 84.7091 159.103 82.9495 158.503C81.1898 157.903 80.2499 155.99 80.8501 154.23C83.0313 147.835 89.7336 130.586 105.427 119.017C112.346 113.918 120.867 110.022 131.275 108.545C129.678 103.349 127.914 98.6773 126.491 94.9308C126.175 94.0961 125.795 93.0779 125.365 91.9266C123.857 87.8844 121.737 82.2017 119.58 77.0627C117.288 87.913 114.16 100.122 102.872 113.132C83.185 135.825 60.0157 143.437 41.1763 143.217C31.7973 143.108 23.4392 141.056 17.1116 137.907C10.9681 134.85 6.02904 130.374 4.88888 125.001C4.00706 120.845 4.8232 116.324 6.59937 112.313C8.3863 108.277 11.2627 104.482 14.8903 101.761C18.5326 99.0292 23.0617 97.2965 28.0199 97.7257C31.4083 98.019 34.7783 99.3027 38.0101 101.664C38.3885 99.6061 38.7043 97.3413 38.9429 94.851C39.2058 92.1079 39.4712 89.4162 39.7374 86.7836L33.6058 89.7243C31.9294 90.5282 29.9187 89.821 29.1148 88.1447C28.3108 86.4683 29.018 84.4577 30.6944 83.6537L40.5519 78.9261C42.3988 61.5344 44.1955 47.3699 45.339 39.0541C36.0406 41.3195 28.8282 42.0158 23.3989 41.7707C17.2572 41.4935 12.7223 39.9725 10.4287 37.4041C9.19039 36.0174 9.31069 33.8894 10.6974 32.651C12.0842 31.4127 14.2122 31.533 15.4505 32.9197C15.8771 33.3975 18.0559 34.79 23.7025 35.045C29.1323 35.2901 37.1912 34.4451 48.4735 31.2693C55.9297 29.1705 64.7592 26.0635 75.1219 21.611C101.586 10.2404 117.413 7.58356 127.286 8.85545C132.321 9.50408 135.856 11.1804 138.398 13.2673C140.892 15.3148 142.228 17.6044 143.038 18.9934L143.049 19.013C143.986 20.619 143.444 22.6802 141.838 23.617C140.232 24.5537 138.17 24.0113 137.234 22.4054C136.464 21.0866 135.631 19.707 134.126 18.4712C132.657 17.2652 130.338 16.0369 126.426 15.5329C118.405 14.4996 103.965 16.5458 77.7797 27.7968C68.1324 31.942 59.7128 34.9773 52.4047 37.1414C51.4046 44.1565 49.6033 57.9423 47.6915 75.502L57.0863 70.9964C58.7626 70.1924 60.7733 70.8996 61.5773 72.5759C62.3812 74.2523 61.674 76.263 59.9977 77.0669L46.855 83.3701C46.4499 87.2737 46.0444 91.324 45.6449 95.4932C45.2236 99.8897 44.5678 103.733 43.7203 107.083C46.2917 109.677 48.9423 110.926 51.4319 111.277C54.2218 111.671 57.1458 110.986 59.9524 109.248C65.5224 105.797 70.3711 98.2936 71.5131 88.4959C71.5114 87.924 71.5289 87.3527 71.5656 86.7856C72.1423 77.8836 74.1138 53.0134 75.0256 41.7136C75.1751 39.8604 76.7986 38.4794 78.6517 38.6289C80.5049 38.7784 81.8859 40.4019 81.7364 42.2551C80.8229 53.5769 78.8566 78.3845 78.2842 87.2208C78.2722 87.4055 78.2631 87.5902 78.2567 87.7746C78.2953 88.0415 78.3023 88.3173 78.2741 88.5976C78.2662 88.6754 78.2582 88.753 78.2499 88.8306C78.2894 90.6468 78.5906 92.3901 79.0936 93.8203C79.7836 95.7821 80.628 96.5703 81.0822 96.7739L81.0856 96.7755C81.2263 96.8387 81.9659 97.1713 83.7649 95.7158C85.651 94.19 88.137 91.0758 91.0581 85.4516C91.915 83.8017 93.9472 83.1588 95.5971 84.0158C97.247 84.8727 97.8898 86.9049 97.0329 88.5548C93.9395 94.5107 90.9384 98.5724 87.9994 100.95C84.9888 103.386 81.5626 104.368 78.3278 102.917C77.0995 102.367 76.0824 101.539 75.2457 100.564C72.5751 106.85 68.4357 111.912 63.4983 114.971C59.5712 117.404 55.0775 118.592 50.4904 117.944C47.2428 117.485 44.1148 116.13 41.244 113.88C37.9784 120.077 32.7962 123.24 27.7688 124.684C25.9819 125.198 24.1171 124.166 23.6037 122.379C23.0903 120.592 24.1226 118.727 25.9094 118.214C29.9072 117.065 33.9261 114.531 36.1405 108.865C32.9923 105.864 30.0168 104.656 27.4393 104.433C24.4668 104.176 21.5439 105.187 18.9299 107.147C16.3011 109.119 14.1168 111.964 12.7554 115.039C11.3832 118.137 10.9635 121.193 11.4748 123.603C11.973 125.95 14.6153 129.145 20.1113 131.88C25.4232 134.523 32.7629 136.386 41.2548 136.485C58.1576 136.682 79.4236 129.887 97.7864 108.72C108.678 96.1663 111.023 84.9755 113.391 73.6769C113.847 71.5024 114.303 69.3239 114.822 67.1309C110.157 58.6591 106.617 50.6388 104.746 44.3599C103.779 41.1149 103.185 38.1005 103.229 35.6396C103.269 33.4384 103.905 30.0903 107.166 28.9021C108.891 28.2736 110.641 28.3056 112.249 28.9697C113.765 29.5958 114.923 30.6851 115.792 31.791C117.496 33.9596 118.661 36.9316 119.472 39.6049C120.307 42.3581 120.873 45.1647 121.229 47.2538C121.409 48.3054 121.537 49.1912 121.622 49.8183C121.664 50.1321 121.695 50.382 121.716 50.5564C121.727 50.6436 121.735 50.712 121.74 50.7601C121.743 50.7842 121.745 50.8032 121.747 50.817L121.749 50.8391L121.749 50.8411C121.75 50.8418 121.75 50.8425 118.403 51.2052C121.753 50.8741 121.753 50.8744 121.753 50.8748L121.753 50.878L121.756 50.9076C121.758 50.9265 121.76 50.9532 121.764 50.9874C121.77 51.0557 121.779 51.1539 121.79 51.2798C121.811 51.5315 121.841 51.8941 121.874 52.35C121.939 53.2611 122.017 54.549 122.069 56.0715C122.163 58.8197 122.174 62.4058 121.855 65.948C125.289 72.43 129.409 83.4896 131.741 89.7512C132.148 90.8437 132.501 91.7902 132.786 92.5408C133.697 94.9413 134.785 97.8083 135.895 101.016C136.56 86.9952 138.031 73.4387 141.213 61.69C146.438 42.3959 156.575 27.039 176.171 23.2394C177.996 22.8855 179.763 24.0782 180.117 25.9034C180.471 27.7285 179.278 29.495 177.453 29.8489C161.531 32.9362 152.64 45.2531 147.712 63.4499C144.21 76.3799 142.86 91.8038 142.366 107.919C153.809 108.189 167.145 111.159 182.639 117.963C199.008 125.151 211.355 130.392 221.305 132.376C231.013 134.313 237.868 133.043 243.788 127.718C250.044 122.091 252.037 114.175 252.254 103.655C250.175 105.732 247.888 107.856 245.637 109.624C243.333 111.436 240.746 113.137 238.267 113.86C236.998 114.23 235.481 114.426 233.947 113.995C232.302 113.533 231.019 112.455 230.176 110.985C229.538 109.873 229.167 108.672 228.979 107.457C228.351 107.932 227.692 108.355 227.021 108.722C224.687 110.001 221.813 110.818 219.015 110.457C216.466 110.128 214.109 108.814 212.609 106.367L212.505 106.443L211.982 106.611C208.394 107.761 204.824 107.748 202.067 105.427C201.265 104.752 200.621 103.95 200.104 103.065C199.265 103.707 198.382 104.226 197.459 104.619C194.714 105.787 191.935 105.698 189.493 104.848C187.047 103.996 184.89 102.371 183.25 100.378C182.568 100.842 181.793 101.269 180.946 101.608C178.161 102.722 174.332 102.929 170.941 100.003C170.627 99.7318 170.339 99.4403 170.077 99.1327C167.056 101.799 163.54 102.817 160.236 102.618C157.929 102.479 155.785 101.748 154.079 100.655C152.448 99.6093 150.852 97.9835 150.31 95.8453C148.788 89.8426 148.861 83.5364 153.347 70.7802C153.964 69.0263 155.885 68.1044 157.639 68.7211C159.393 69.3378 160.315 71.2596 159.698 73.0135C155.472 85.0344 155.753 89.9157 156.835 94.187C156.83 94.1668 156.831 94.1678 156.842 94.1869C156.886 94.2585 157.084 94.5841 157.711 94.9861C158.44 95.4533 159.472 95.8275 160.641 95.898C162.604 96.0163 165.203 95.2912 167.407 92.0161C167.079 89.1337 167.261 85.9547 167.65 83.0812C168.103 79.7332 168.874 76.5228 169.667 74.2601C170.036 73.206 170.511 72.0531 171.112 71.2145C171.277 70.9833 171.515 70.6857 171.834 70.4024C172.131 70.1392 172.689 69.7173 173.5 69.5276C174.442 69.3071 175.457 69.4689 176.305 70.0333C177.038 70.5203 177.421 71.1548 177.608 71.5361C177.971 72.2721 178.083 73.0538 178.134 73.5668C178.194 74.1642 178.208 74.847 178.191 75.594C178.156 77.093 177.987 79.0963 177.663 81.6672C177.071 86.3634 175.97 90.1771 174.469 93.2159C174.757 94.2081 175.105 94.7032 175.339 94.9057C176.356 95.7825 177.355 95.7929 178.446 95.3567C179.03 95.1231 179.561 94.7761 179.952 94.4364C180.053 94.349 180.135 94.2699 180.2 94.2026C179.278 89.836 179.789 83.0247 186.644 76.5514C189.272 74.0695 192.928 72.6703 196.586 73.2387C197.769 73.4225 198.893 73.8024 199.933 74.3694C200.578 70.3873 201.331 66.1826 202.1 61.8916C202.42 60.1062 202.742 58.3058 203.061 56.5003C204.561 47.9957 206.832 40.8035 209.24 35.5297C210.44 32.9006 211.712 30.6657 212.996 28.9635C214.165 27.4127 215.748 25.7513 217.726 25.1652C218.868 24.8269 220.215 24.8339 221.486 25.5221C222.678 26.1676 223.405 27.1982 223.846 28.133C224.689 29.9192 224.95 32.3275 224.912 35.0037C224.833 40.5175 223.426 49.0252 220.172 60.9767C217.058 72.4135 213.937 78.7431 209.715 87.3056C208.638 89.4899 207.489 91.8196 206.25 94.4164C205.872 95.3116 205.473 96.1502 205.054 96.9334C205.404 99.0063 205.986 99.9249 206.403 100.276C206.612 100.453 207.196 100.836 208.829 100.495C208.839 100.474 208.849 100.452 208.86 100.429C209.179 99.7503 209.554 98.8351 209.953 97.8071C210.247 97.0475 210.569 96.1852 210.879 95.3542C211.339 94.1204 211.774 92.9555 212.056 92.2981C212.638 90.9417 214.361 87.1031 217.338 84.2554C218.862 82.7974 220.877 81.4404 223.394 80.9436C225.982 80.4328 228.729 80.9054 231.505 82.4825C233.293 83.4984 234.393 84.9961 235.041 86.6429C235.381 86.0221 235.711 85.4399 236.023 84.9044C236.959 83.2981 239.02 82.7546 240.627 83.6907C242.233 84.6267 242.777 86.6877 241.841 88.294C240.189 91.1284 238.082 95.2362 236.766 99.2002C236.108 101.184 235.69 103.01 235.582 104.552C235.48 105.998 235.67 106.932 235.942 107.495C236.045 107.481 236.19 107.452 236.383 107.396C237.572 107.049 239.322 106.025 241.477 104.331C245.248 101.367 249.285 97.146 252.067 94.0679C251.927 91.211 251.729 88.2216 251.524 85.1184C250.712 72.8213 249.781 58.7365 251.846 44.0297C253.177 34.5525 255.258 26.6527 257.681 20.6024C260.045 14.6982 262.919 10.0862 266.133 7.76C267.801 6.55236 269.914 5.71985 272.214 6.17789C274.522 6.63737 276.187 8.22949 277.31 10.0829ZM258.276 85.0783C258.257 84.802 258.239 84.5253 258.221 84.248C257.419 72.0503 256.555 58.9136 258.514 44.966C259.786 35.906 261.75 28.5508 263.931 23.1052C266.17 17.5134 268.458 14.3885 270.081 13.2137C270.537 12.8834 270.798 12.8063 270.898 12.7895C270.992 12.8468 271.226 13.0346 271.552 13.5726C272.698 15.4636 273.762 19.7465 273.762 27.3072C273.762 42.119 269.908 57.0646 265.441 69.0155C263.214 74.9748 260.853 80.14 258.785 84.1121C258.613 84.4439 258.443 84.766 258.276 85.0783ZM270.946 12.7857C270.946 12.7861 270.94 12.7865 270.93 12.7856C270.941 12.7849 270.946 12.7853 270.946 12.7857ZM270.87 12.7738C270.859 12.7704 270.854 12.7678 270.854 12.7673C270.854 12.7668 270.86 12.7685 270.87 12.7738ZM208.453 101.196C208.452 101.196 208.464 101.178 208.487 101.146C208.465 101.182 208.453 101.197 208.453 101.196ZM205.917 79.743C208.958 73.4408 211.279 68.0111 213.676 59.2079C216.88 47.4381 218.113 39.5742 218.18 34.9078C218.189 34.2987 218.177 33.7711 218.151 33.317C217.305 34.4981 216.349 36.1693 215.364 38.326C213.229 43.0024 211.108 49.6346 209.691 57.6698C209.363 59.5271 209.035 61.3622 208.711 63.1688C207.654 69.0702 206.652 74.6674 205.917 79.743ZM217.741 30.9741C217.741 30.9738 217.742 30.9762 217.745 30.9815C217.742 30.9769 217.741 30.9743 217.741 30.9741ZM198.743 82.5781C197.808 80.6886 196.57 80.0497 195.552 79.8915C194.251 79.6894 192.619 80.1694 191.267 81.4464C186.25 86.1837 186.291 90.5753 186.806 92.8971C187.317 95.2037 189.39 97.6825 191.708 98.4899C192.757 98.8554 193.792 98.8625 194.823 98.424C195.746 98.0314 196.903 97.1774 198.111 95.424C197.853 91.7443 198.159 87.3377 198.743 82.5781ZM171.414 74.0862C171.415 74.0868 171.417 74.0953 171.419 74.1126C171.415 74.0948 171.414 74.0855 171.414 74.0862ZM218.353 94.7004C217.36 98.8857 217.643 101.233 218.125 102.4C218.512 103.339 219.072 103.675 219.877 103.779C220.881 103.909 222.317 103.623 223.787 102.818C225.25 102.016 226.341 100.921 226.852 99.934C228.041 97.634 228.95 94.6747 229.108 92.1609C229.281 89.4054 228.536 88.5395 228.178 88.3361C226.618 87.4495 225.502 87.39 224.698 87.5488C223.823 87.7215 222.917 88.2355 221.992 89.1202C220.191 90.8433 218.947 93.3538 218.353 94.7004ZM133.241 132.272C132.012 131.775 130.778 131.433 129.604 131.287C127.358 131.006 125.57 131.451 124.244 132.585C122.74 133.871 121.905 135.258 121.548 136.669C121.188 138.089 121.255 139.764 121.934 141.699C122.913 144.492 125.134 147.698 128.806 151.004C130.522 150.097 132.5 148.969 134.419 147.726C134.018 147.375 133.636 147.018 133.28 146.655C131.979 145.327 130.523 143.413 130.391 141.04C130.29 139.205 130.815 137.044 131.729 135.011C132.134 134.11 132.636 133.185 133.241 132.272ZM140.293 151.873C138.437 153.198 136.468 154.422 134.634 155.477C137.797 157.568 139.488 158.413 140.446 158.71C140.749 158.804 140.902 158.818 140.951 158.819C140.978 158.809 141.038 158.785 141.146 158.728C142.951 157.791 144.351 156.727 145.978 155.145C145.904 155.104 145.83 155.062 145.755 155.02C145.332 154.784 144.895 154.539 144.444 154.285C143.11 153.535 141.687 152.723 140.293 151.873ZM150.59 150.013C150.061 149.714 149.515 149.409 148.963 149.1C148.558 148.874 148.151 148.646 147.745 148.417C147.057 148.03 146.365 147.638 145.679 147.24C146.074 146.805 146.444 146.36 146.782 145.906C147.959 144.325 149.048 142.23 148.89 139.847C148.732 137.467 147.471 135.241 146.027 133.457C145.479 132.779 144.865 132.117 144.2 131.478C145.844 130.776 147.823 130.371 150.191 130.473C153.792 130.629 155.482 132.164 156.268 133.863C157.158 135.789 157.161 138.555 156.033 141.306C155.059 143.683 153.404 146.46 150.59 150.013ZM138.971 135.816C139.676 136.436 140.291 137.071 140.793 137.691C141.845 138.991 142.146 139.905 142.172 140.294C142.176 140.352 142.153 140.85 141.382 141.885C141.001 142.398 140.507 142.945 139.912 143.519C139.189 142.967 138.576 142.44 138.09 141.944C137.227 141.063 137.121 140.638 137.113 140.64C137.113 140.64 137.113 140.641 137.112 140.641C137.096 140.204 137.247 139.158 137.87 137.77C138.157 137.131 138.523 136.468 138.971 135.816ZM140.934 158.824C140.93 158.825 140.934 158.824 140.942 158.822C140.938 158.823 140.935 158.824 140.934 158.824ZM115.155 52.7866C115.126 52.3869 115.1 52.0723 115.082 51.8584C115.072 51.7475 115.065 51.6638 115.06 51.6093C115.057 51.5839 115.056 51.5649 115.054 51.5525C115.054 51.5454 115.053 51.5361 115.051 51.5246C115.047 51.4898 115.041 51.4353 115.032 51.3625C115.015 51.2167 114.987 50.9978 114.949 50.717C114.874 50.1547 114.756 49.3477 114.592 48.3856C114.262 46.447 113.752 43.9421 113.029 41.5592C112.282 39.0964 111.407 37.1078 110.498 35.9508C110.289 35.6845 110.113 35.5079 109.976 35.3921C109.969 35.4993 109.963 35.6217 109.961 35.7609C109.935 37.1984 110.304 39.4366 111.198 42.4371C112.088 45.4226 113.427 48.9329 115.155 52.7866ZM110.098 34.72C110.1 34.7236 110.091 34.753 110.064 34.7975C110.082 34.7387 110.095 34.7164 110.098 34.72ZM118.403 51.2052L121.753 50.8741L121.751 50.8583L121.75 50.8425L118.403 51.2052Z" fill="#FF6A56"/>
<path fill-rule="evenodd" clip-rule="evenodd" d="M273.275 4.51703C275.431 8.07375 276.46 13.9516 276.46 21.7413C276.46 37.6303 272.347 53.4079 267.713 65.8067C265.39 72.0222 262.917 77.4385 260.722 81.655C258.571 85.7865 256.575 88.985 255.164 90.6049C255.072 90.7108 254.975 90.8216 254.875 90.9369C255.384 105.048 254.283 118.138 244.255 127.158C236.275 134.336 227.016 135.62 215.953 133.413C205.132 131.255 192.051 125.655 175.897 118.561C161.114 112.069 148.658 109.323 138.172 109.081C138.112 112.538 138.083 116.016 138.072 119.496C140.484 118.555 143.275 118.044 146.447 118.181C152.275 118.433 156.384 121.234 158.343 125.471C160.198 129.48 159.887 134.247 158.228 138.294C156.691 142.043 154.068 146.07 149.902 150.978L149.864 151.024L149.824 151.068C146.6 154.605 144.111 157.113 140.214 159.137C139.569 159.473 138.716 159.834 137.633 159.949C136.558 160.062 135.494 159.909 134.414 159.574C132.39 158.945 129.868 157.526 126.374 155.187L126.365 155.181L126.357 155.176C118.771 150.031 113.6 144.218 111.545 138.362C110.503 135.39 110.251 132.354 110.986 129.45C111.725 126.535 113.4 123.982 115.833 121.902C118.977 119.215 122.835 118.594 126.404 119.04C127.99 119.238 129.564 119.649 131.079 120.212C130.633 116.575 129.921 112.982 129.064 109.529C119.247 110.769 111.495 114.369 105.387 118.871C91.405 129.178 85.2553 144.774 83.1871 150.838C82.5869 152.597 80.6739 153.537 78.9143 152.937C77.1547 152.337 76.2148 150.424 76.815 148.664C78.9962 142.27 85.6985 125.02 101.392 113.452C108.31 108.352 116.832 104.456 127.239 102.979C125.643 97.7827 123.879 93.1114 122.456 89.3649C122.139 88.5302 121.759 87.512 121.33 86.3607C119.822 82.3185 117.701 76.6357 115.545 71.4968C113.253 82.3471 110.124 94.5557 98.8368 107.567C79.1499 130.259 55.9805 137.871 37.1412 137.651C27.7621 137.542 19.4041 135.49 13.0765 132.341C6.93291 129.284 1.99389 124.808 0.85372 119.435C-0.0280929 115.28 0.788046 110.758 2.56421 106.747C4.35114 102.711 7.22755 98.9158 10.8551 96.1951C14.4975 93.4633 19.0265 91.7306 23.9848 92.1598C27.3732 92.453 30.7431 93.7368 33.975 96.0976C34.3534 94.0402 34.6692 91.7754 34.9078 89.2851C35.1706 86.542 35.4361 83.8503 35.7022 81.2177L29.5706 84.1584C27.8943 84.9623 25.8836 84.2551 25.0796 82.5788C24.2757 80.9024 24.9829 78.8918 26.6592 78.0878L36.5167 73.3602C38.3636 55.9685 40.1604 41.804 41.3039 33.4882C32.0055 35.7536 24.7931 36.4499 19.3637 36.2048C13.2221 35.9276 8.68711 34.4066 6.39357 31.8382C5.15524 30.4515 5.27553 28.3234 6.66226 27.0851C8.04899 25.8468 10.177 25.9671 11.4154 27.3538C11.842 27.8316 14.0207 29.2241 19.6674 29.479C25.0971 29.7242 33.156 28.8791 44.4383 25.7034C51.8946 23.6046 60.724 20.4976 71.0867 16.0451C97.5505 4.67446 113.378 2.01764 123.251 3.28954C128.286 3.93816 131.82 5.61453 134.363 7.70142C136.857 9.74891 138.192 12.0385 139.003 13.4275L139.014 13.4471C139.951 15.053 139.408 17.1143 137.802 18.0511C136.197 18.9878 134.135 18.4454 133.199 16.8394C132.429 15.5207 131.596 14.1411 130.091 12.9053C128.622 11.6993 126.303 10.471 122.391 9.96698C114.37 8.93366 99.93 10.9799 73.7446 22.2309C64.0972 26.376 55.6776 29.4114 48.3695 31.5755C47.3695 38.5906 45.5682 52.3764 43.6564 69.9361L53.0511 65.4304C54.7275 64.6265 56.7382 65.3337 57.5421 67.01C58.3461 68.6864 57.6389 70.6971 55.9625 71.501L42.8198 77.8042C42.4147 81.7078 42.0092 85.7581 41.6097 89.9273C41.1884 94.3238 40.5327 98.1667 39.6852 101.517C42.2565 104.111 44.9072 105.36 47.3968 105.711C50.1866 106.105 53.1107 105.421 55.9173 103.682C61.4873 100.231 66.336 92.7277 67.4779 82.9299C67.4762 82.3581 67.4937 81.7868 67.5305 81.2196C68.1071 72.3177 70.0787 47.4474 70.9904 36.1477C71.14 34.2945 72.7634 32.9135 74.6166 33.063C76.4697 33.2125 77.8508 34.836 77.7013 36.6891C76.7877 48.011 74.8214 72.8186 74.249 81.6549C74.2371 81.8396 74.2279 82.0243 74.2215 82.2088C74.2602 82.4756 74.2672 82.7514 74.2389 83.0317C74.2311 83.1094 74.223 83.1871 74.2148 83.2647C74.2543 85.0808 74.5554 86.8242 75.0584 88.2544C75.7484 90.2162 76.5929 91.0044 77.047 91.208L77.0505 91.2096C77.1911 91.2728 77.9307 91.6053 79.7297 90.1499C81.6158 88.624 84.1018 85.5099 87.023 79.8856C87.8799 78.2357 89.9121 77.5929 91.562 78.4499C93.2119 79.3068 93.8547 81.339 92.9978 82.9889C89.9044 88.9448 86.9033 93.0065 83.9643 95.3841C80.9537 97.8198 77.5275 98.8018 74.2927 97.3515C73.0644 96.8008 72.0472 95.9733 71.2105 94.9982C68.5399 101.284 64.4005 106.346 59.4632 109.405C55.536 111.838 51.0424 113.026 46.4552 112.378C43.2077 111.919 40.0796 110.564 37.2089 108.314C33.9433 114.511 28.761 117.674 23.7336 119.119C21.9467 119.632 20.082 118.6 19.5685 116.813C19.0551 115.026 20.0874 113.161 21.8743 112.648C25.872 111.499 29.8909 108.965 32.1053 103.299C28.9572 100.298 25.9817 99.0904 23.4042 98.8673C20.4316 98.61 17.5087 99.6207 14.8947 101.581C12.2659 103.553 10.0816 106.399 8.72025 109.473C7.34809 112.571 6.9283 115.627 7.43969 118.037C7.93781 120.385 10.5801 123.579 16.0761 126.314C21.388 128.957 28.7277 130.82 37.2197 130.919C54.1224 131.116 75.3884 124.321 93.7513 103.155C104.643 90.6004 106.988 79.4096 109.356 68.111C109.812 65.9365 110.268 63.758 110.787 61.565C106.122 53.0932 102.582 45.0728 100.711 38.794C99.744 35.549 99.1499 32.5346 99.1943 30.0736C99.234 27.8725 99.8703 24.5244 103.131 23.3362C104.855 22.7076 106.606 22.7397 108.214 23.4038C109.73 24.0299 110.888 25.1191 111.757 26.2251C113.461 28.3937 114.626 31.3657 115.436 34.039C116.272 36.7922 116.838 39.5988 117.194 41.6879C117.373 42.7395 117.502 43.6252 117.587 44.2523C117.629 44.5662 117.66 44.8161 117.681 44.9904C117.692 45.0777 117.7 45.1461 117.705 45.1942C117.708 45.2183 117.71 45.2373 117.712 45.2511L117.714 45.2732L117.714 45.2751C117.714 45.2759 117.714 45.2766 114.368 45.6393C117.718 45.3082 117.718 45.3085 117.718 45.3089L117.718 45.3121L117.721 45.3416C117.723 45.3606 117.725 45.3873 117.728 45.4215C117.735 45.4898 117.744 45.588 117.755 45.7139C117.776 45.9656 117.806 46.3282 117.839 46.7841C117.904 47.6952 117.982 48.9831 118.034 50.5056C118.127 53.2537 118.139 56.8399 117.82 60.382C121.254 66.864 125.373 77.9236 127.706 84.1853C128.113 85.2778 128.465 86.2243 128.75 86.9749C129.662 89.3754 130.75 92.2424 131.859 95.4502C132.525 81.4293 133.996 67.8727 137.178 56.124C142.403 36.83 152.54 21.4731 172.136 17.6735C173.961 17.3196 175.728 18.5123 176.081 20.3374C176.435 22.1626 175.243 23.9291 173.418 24.283C157.495 27.3703 148.605 39.6872 143.677 57.884C140.175 70.814 138.825 86.2379 138.331 102.353C149.773 102.623 163.11 105.593 178.604 112.397C194.973 119.585 207.32 124.826 217.27 126.81C226.977 128.747 233.833 127.477 239.753 122.152C246.009 116.525 248.002 108.609 248.219 98.0886C246.14 100.166 243.853 102.29 241.602 104.059C239.298 105.87 236.711 107.571 234.232 108.294C232.963 108.664 231.446 108.86 229.912 108.429C228.267 107.967 226.984 106.889 226.141 105.419C225.503 104.307 225.132 103.106 224.944 101.891C224.315 102.366 223.656 102.789 222.986 103.156C220.652 104.435 217.778 105.252 214.98 104.891C212.431 104.562 210.073 103.248 208.574 100.801L208.47 100.878L207.947 101.045C204.359 102.195 200.789 102.182 198.032 99.8608C197.23 99.1857 196.586 98.3841 196.069 97.4994C195.23 98.1412 194.347 98.6604 193.423 99.0534C190.678 100.221 187.899 100.133 185.458 99.2818C183.012 98.4297 180.855 96.8048 179.215 94.8124C178.533 95.2761 177.758 95.7032 176.911 96.0421C174.125 97.1558 170.297 97.3628 166.906 94.4374C166.592 94.1659 166.304 93.8743 166.041 93.5668C163.021 96.2328 159.505 97.2516 156.201 97.0525C153.894 96.9135 151.75 96.1821 150.044 95.0887C148.412 94.0434 146.817 92.4176 146.275 90.2794C144.753 84.2767 144.826 77.9705 149.312 65.2143C149.928 63.4604 151.85 62.5385 153.604 63.1552C155.358 63.7719 156.28 65.6937 155.663 67.4476C151.436 79.4684 151.718 84.3498 152.8 88.6211C152.795 88.6009 152.795 88.6019 152.807 88.621C152.851 88.6926 153.049 89.0181 153.676 89.4202C154.405 89.8874 155.437 90.2616 156.606 90.3321C158.569 90.4504 161.168 89.7253 163.371 86.4502C163.043 83.5678 163.226 80.3888 163.615 77.5153C164.068 74.1673 164.839 70.9569 165.631 68.6941C166 67.6401 166.476 66.4871 167.076 65.6485C167.242 65.4174 167.48 65.1198 167.799 64.8365C168.096 64.5732 168.654 64.1514 169.464 63.9617C170.407 63.7412 171.422 63.903 172.27 64.4674C173.003 64.9544 173.385 65.5889 173.573 65.9702C173.936 66.7062 174.048 67.4879 174.099 68.0009C174.159 68.5983 174.173 69.2811 174.156 70.028C174.121 71.5271 173.952 73.5304 173.628 76.1013C173.036 80.7975 171.935 84.6112 170.434 87.65C170.721 88.6422 171.069 89.1373 171.304 89.3398C172.32 90.2166 173.32 90.227 174.411 89.7908C174.995 89.5572 175.526 89.2102 175.917 88.8705C176.018 88.7831 176.1 88.704 176.165 88.6367C175.242 84.2701 175.754 77.4588 182.609 70.9855C185.237 68.5036 188.893 67.1044 192.551 67.6728C193.733 67.8566 194.858 68.2365 195.898 68.8035C196.543 64.8213 197.296 60.6167 198.065 56.3256C198.385 54.5402 198.707 52.7399 199.026 50.9344C200.526 42.4298 202.797 35.2376 205.205 29.9637C206.405 27.3347 207.677 25.0997 208.961 23.3976C210.13 21.8468 211.712 20.1854 213.691 19.5993C214.832 19.261 216.18 19.268 217.451 19.9562C218.643 20.6017 219.37 21.6323 219.811 22.5671C220.654 24.3533 220.915 26.7615 220.877 29.4378C220.798 34.9516 219.391 43.4593 216.137 55.4108C213.023 66.8475 209.902 73.1772 205.679 81.7397C204.602 83.924 203.454 86.2537 202.215 88.8505C201.837 89.7457 201.438 90.5843 201.019 91.3675C201.369 93.4404 201.95 94.359 202.368 94.7104C202.577 94.8868 203.161 95.2705 204.794 94.9291C204.804 94.9078 204.814 94.8859 204.825 94.8635C205.144 94.1844 205.519 93.2692 205.917 92.2412C206.212 91.4816 206.534 90.6193 206.844 89.7883C207.304 88.5544 207.739 87.3896 208.021 86.7322C208.603 85.3758 210.326 81.5372 213.303 78.6895C214.827 77.2314 216.842 75.8744 219.359 75.3776C221.947 74.8669 224.694 75.3395 227.47 76.9166C229.257 77.9325 230.358 79.4301 231.006 81.077C231.346 80.4562 231.676 79.874 231.988 79.3385C232.924 77.7322 234.985 77.1887 236.592 78.1248C238.198 79.0608 238.741 81.1218 237.805 82.7281C236.154 85.5625 234.046 89.6703 232.731 93.6342C232.073 95.6176 231.655 97.4442 231.547 98.9859C231.445 100.432 231.635 101.366 231.907 101.929C232.01 101.915 232.154 101.887 232.348 101.83C233.537 101.483 235.287 100.459 237.442 98.7653C241.213 95.8012 245.25 91.5801 248.032 88.5019C247.892 85.6451 247.694 82.6557 247.489 79.5525C246.677 67.2553 245.746 53.1706 247.811 38.4638C249.142 28.9866 251.223 21.0867 253.646 15.0364C256.01 9.13225 258.884 4.52026 262.098 2.19408C263.766 0.986445 265.878 0.153929 268.179 0.611971C270.486 1.07145 272.152 2.66357 273.275 4.51703ZM254.24 79.5124C254.222 79.2361 254.204 78.9594 254.186 78.6821C253.384 66.4844 252.52 53.3477 254.478 39.4001C255.751 30.3401 257.715 22.9849 259.896 17.5392C262.135 11.9475 264.423 8.82254 266.045 7.64775C266.502 7.31748 266.763 7.24034 266.863 7.22361C266.957 7.28091 267.191 7.46867 267.517 8.00664C268.663 9.89773 269.727 14.1806 269.727 21.7413C269.727 36.5531 265.873 51.4987 261.406 63.4496C259.179 69.4089 256.818 74.5741 254.75 78.5462C254.577 78.878 254.407 79.2001 254.24 79.5124ZM266.911 7.21979C266.911 7.22019 266.905 7.22055 266.895 7.21965C266.906 7.21894 266.911 7.21939 266.911 7.21979ZM266.835 7.2079C266.824 7.20451 266.819 7.20186 266.819 7.20139C266.819 7.20091 266.824 7.2026 266.835 7.2079ZM204.418 95.6306C204.417 95.6299 204.428 95.6116 204.452 95.5804C204.43 95.6158 204.418 95.6312 204.418 95.6306ZM201.882 74.1771C204.923 67.8749 207.244 62.4452 209.641 53.642C212.845 41.8722 214.078 34.0083 214.145 29.3419C214.153 28.7328 214.141 28.2052 214.116 27.7511C213.27 28.9321 212.314 30.6034 211.329 32.7601C209.194 37.4365 207.073 44.0686 205.656 52.1039C205.328 53.9612 205 55.7963 204.676 57.6029C203.619 63.5043 202.617 69.1015 201.882 74.1771ZM213.706 25.4082C213.706 25.4079 213.707 25.4103 213.71 25.4156C213.707 25.411 213.706 25.4084 213.706 25.4082ZM194.708 77.0122C193.772 75.1227 192.535 74.4838 191.517 74.3256C190.216 74.1235 188.584 74.6035 187.232 75.8804C182.215 80.6178 182.256 85.0094 182.771 87.3312C183.282 89.6377 185.355 92.1166 187.673 92.924C188.722 93.2894 189.757 93.2966 190.788 92.8581C191.71 92.4655 192.868 91.6115 194.076 89.8581C193.818 86.1784 194.124 81.7717 194.708 77.0122ZM167.379 68.5203C167.379 68.5209 167.381 68.5294 167.384 68.5467C167.38 68.5289 167.379 68.5196 167.379 68.5203ZM214.318 89.1345C213.325 93.3198 213.608 95.6672 214.09 96.8341C214.477 97.7731 215.037 98.1096 215.842 98.2135C216.846 98.3431 218.282 98.0569 219.752 97.2518C221.214 96.4504 222.306 95.3547 222.816 94.3681C224.006 92.0681 224.915 89.1088 225.073 86.595C225.246 83.8395 224.501 82.9736 224.143 82.7702C222.583 81.8836 221.467 81.8241 220.662 81.9829C219.787 82.1555 218.882 82.6696 217.957 83.5543C216.156 85.2774 214.912 87.7879 214.318 89.1345ZM129.206 126.706C127.977 126.209 126.742 125.867 125.569 125.721C123.323 125.44 121.535 125.885 120.208 127.019C118.705 128.305 117.87 129.693 117.513 131.103C117.153 132.523 117.22 134.199 117.899 136.133C118.878 138.926 121.098 142.132 124.771 145.438C126.487 144.531 128.465 143.404 130.384 142.16C129.982 141.809 129.601 141.452 129.245 141.089C127.944 139.761 126.488 137.847 126.356 135.474C126.255 133.64 126.78 131.478 127.694 129.445C128.098 128.544 128.601 127.62 129.206 126.706ZM136.258 146.307C134.402 147.632 132.433 148.856 130.598 149.911C133.762 152.003 135.453 152.847 136.411 153.144C136.714 153.238 136.867 153.252 136.915 153.253C136.943 153.243 137.003 153.219 137.111 153.163C138.916 152.225 140.316 151.162 141.943 149.579C141.869 149.538 141.795 149.496 141.72 149.455C141.297 149.218 140.86 148.973 140.409 148.719C139.074 147.969 137.652 147.157 136.258 146.307ZM146.555 144.448C146.026 144.149 145.48 143.843 144.928 143.534C144.523 143.308 144.115 143.08 143.709 142.851C143.022 142.464 142.329 142.072 141.644 141.675C142.039 141.239 142.409 140.794 142.747 140.34C143.924 138.759 145.013 136.664 144.855 134.281C144.696 131.901 143.436 129.675 141.992 127.891C141.444 127.213 140.83 126.551 140.165 125.912C141.809 125.21 143.788 124.805 146.156 124.907C149.757 125.063 151.447 126.599 152.233 128.297C153.123 130.223 153.126 132.989 151.998 135.74C151.024 138.117 149.369 140.894 146.555 144.448ZM134.936 130.25C135.641 130.87 136.256 131.505 136.758 132.125C137.809 133.425 138.111 134.339 138.137 134.728C138.141 134.786 138.117 135.285 137.347 136.319C136.965 136.832 136.471 137.379 135.876 137.953C135.154 137.401 134.541 136.874 134.055 136.379C133.192 135.497 133.086 135.072 133.078 135.074C133.078 135.074 133.077 135.075 133.077 135.075C133.061 134.638 133.211 133.592 133.835 132.204C134.122 131.565 134.488 130.902 134.936 130.25ZM136.897 153.259C136.898 153.258 136.901 153.257 136.907 153.256C136.9 153.258 136.897 153.259 136.897 153.259ZM111.12 47.2207C111.091 46.821 111.065 46.5064 111.047 46.2925C111.037 46.1816 111.03 46.0978 111.025 46.0434C111.022 46.018 111.02 45.999 111.019 45.9866C111.018 45.9795 111.017 45.9702 111.016 45.9587C111.012 45.9239 111.006 45.8694 110.997 45.7966C110.979 45.6508 110.952 45.4319 110.914 45.1511C110.839 44.5888 110.721 43.7818 110.557 42.8197C110.227 40.8811 109.717 38.3761 108.994 35.9933C108.247 33.5305 107.372 31.5419 106.463 30.3849C106.254 30.1186 106.078 29.942 105.941 29.8262C105.934 29.9334 105.928 30.0558 105.926 30.195C105.9 31.6325 106.269 33.8707 107.163 36.8712C108.053 39.8567 109.392 43.367 111.12 47.2207ZM106.063 29.1541C106.065 29.1577 106.056 29.1871 106.029 29.2316C106.047 29.1728 106.06 29.1505 106.063 29.1541ZM114.368 45.6393L117.718 45.3082L117.716 45.2924L117.714 45.2766L114.368 45.6393Z" fill="#ECDAB6"/>
</svg>
