<svg width="100" height="86" viewBox="0 0 100 86" fill="none" xmlns="http://www.w3.org/2000/svg">
<path d="M10.8971 7.74537C21.8081 -1.58274 38.012 1.01098 50.0147 7.8121C56.5604 3.04727 65.8048 -1.29946 77.202 0.556279C89.6562 2.58414 98.1198 11.2416 99.4814 23.5695C100.823 35.7119 95.2474 50.9497 80.9711 66.6136C73.6973 74.5945 68.5567 79.7027 60.565 83.8538C59.4199 84.4486 58.1281 84.9742 56.5449 85.1418C54.9675 85.3087 53.2746 85.1029 51.3173 84.4951C47.501 83.3101 42.3133 80.4726 34.3823 75.1635L34.3761 75.1593L34.37 75.1551C32.5668 73.9323 30.8333 72.6971 29.1699 71.452C20.6266 76.2877 12.8475 80.1005 8.55944 82.273C7.35246 82.8845 5.87832 82.4016 5.2668 81.1947C4.6553 79.9877 5.13798 78.5136 6.34492 77.902C10.4365 75.8291 17.3463 72.4299 24.9869 68.1798C13.5333 58.8045 5.9956 48.9687 2.6745 39.4999C0.585037 33.5426 0.154851 27.6911 1.53725 22.2327C2.92163 16.7665 6.08187 11.862 10.8971 7.74537ZM54.7377 54.1714C48.6346 59.4385 41.1172 64.4265 33.7954 68.7722C34.8702 69.5492 35.9764 70.324 37.1143 71.0958C45.0269 76.3923 49.697 78.8613 52.7703 79.8156C54.2583 80.2776 55.2685 80.3494 56.0292 80.2689C56.784 80.189 57.4657 79.9419 58.3063 79.5053C64.7789 76.1434 69.1989 72.1125 75.3051 65.537C72.649 64.0285 69.6018 62.4315 66.3543 60.7037C62.5661 58.6883 58.5435 56.5139 54.7377 54.1714ZM45.9415 11.1768C35.0608 5.57047 22.2512 4.48486 14.081 11.4697C9.94221 15.0081 7.39406 19.0647 6.28708 23.4356C5.17816 27.8142 5.47364 32.6759 7.2983 37.8782C10.3641 46.6189 17.7169 56.2035 29.5661 65.5758C36.8017 61.365 44.3093 56.5099 50.4526 51.3821C47.5833 49.3951 44.9158 47.2651 42.6962 44.9761C39.7956 41.9847 37.5297 38.589 36.6965 34.7528C35.1421 27.5956 38.5381 18.2404 45.9415 11.1768ZM76.4144 5.39256C67.6129 3.95946 60.2236 6.85989 54.4825 10.6709C57.9623 13.1733 61.0223 16.0815 63.3752 19.2287C66.3792 23.2468 68.3289 27.7933 68.3289 32.4502C68.3289 36.1498 66.9376 39.7512 64.7785 43.13C63.1222 45.7217 60.9645 48.2601 58.4864 50.7154C61.7948 52.6992 65.2713 54.5774 68.6557 56.378C72.2038 58.2657 75.6871 60.0873 78.6792 61.825C91.3825 47.3327 95.7048 34.0099 94.6111 24.1074C93.5005 14.0527 86.7838 7.08095 76.4144 5.39256ZM50.3604 13.7759C43.0871 20.0954 40.3294 28.3924 41.4849 33.7128C42.0542 36.334 43.6733 38.945 46.214 41.5653C48.3847 43.8039 51.134 45.9522 54.2262 48.024C56.8793 45.4901 59.0697 42.9638 60.6496 40.4914C62.4987 37.5978 63.429 34.9108 63.429 32.4501C63.4289 29.1658 62.0405 25.6264 59.451 22.1626C57.168 19.109 54.027 16.2217 50.3604 13.7759Z" fill="#D3A372"/>
</svg>
